<svg width="12" height="9" viewBox="0 0 12 9" fill="none" xmlns="http://www.w3.org/2000/svg">
<path d="M6 0.666382C1.4448 0.666382 0.0757908 4.44752 0.0632584 4.48581L0 4.66638L0.0626617 4.84695C0.0757908 4.88524 1.4448 8.66638 6 8.66638C10.5552 8.66638 11.9242 4.88524 11.9367 4.84695L12 4.66638L11.9373 4.48581C11.9242 4.44752 10.5552 0.666382 6 0.666382ZM6 7.52353C2.80664 7.52353 1.56952 5.32581 1.26994 4.66638C1.57072 4.00467 2.80843 1.80924 6 1.80924C9.19336 1.80924 10.4305 4.00695 10.7301 4.66638C10.4293 5.3281 9.19157 7.52353 6 7.52353Z" fill="#7D7B7B"/>
</svg>
